<svg width="16" height="16" viewBox="0 0 16 16" fill="none" xmlns="http://www.w3.org/2000/svg">
<g id="Group 32">
<path id="Vector" d="M15.645 6.99226L14.5569 5.72857C14.3489 5.48863 14.1809 5.04074 14.1809 4.72082V3.36116C14.1809 2.51337 13.4848 1.81754 12.6368 1.81754H11.2767C10.9647 1.81754 10.5087 1.64959 10.2686 1.44164L9.00457 0.353911C8.45254 -0.11797 7.54848 -0.11797 6.98845 0.353911L5.73235 1.44964C5.49233 1.64959 5.0363 1.81754 4.72428 1.81754H3.3402C2.49215 1.81754 1.79611 2.51337 1.79611 3.36116V4.72882C1.79611 5.04074 1.6281 5.48863 1.42809 5.72857L0.348021 7.00025C-0.116007 7.55212 -0.116007 8.44789 0.348021 8.99975L1.42809 10.2714C1.6281 10.5114 1.79611 10.9593 1.79611 11.2712V12.6388C1.79611 13.4866 2.49215 14.1825 3.3402 14.1825H4.72428C5.0363 14.1825 5.49233 14.3504 5.73235 14.5584L6.99645 15.6461C7.54849 16.118 8.45254 16.118 9.01257 15.6461L10.2766 14.5584C10.5167 14.3504 10.9647 14.1825 11.2847 14.1825H12.6448C13.4928 14.1825 14.1889 13.4866 14.1889 12.6388V11.2792C14.1889 10.9673 14.3569 10.5114 14.5649 10.2714L15.653 9.00775C16.117 8.45589 16.117 7.54412 15.645 6.99226ZM11.3247 6.48838L7.46048 10.3514C7.34847 10.4634 7.19646 10.5274 7.03646 10.5274C6.87645 10.5274 6.72444 10.4634 6.61243 10.3514L4.67628 8.4159C4.44427 8.18396 4.44427 7.80005 4.67628 7.56811C4.90829 7.33617 5.29232 7.33617 5.52433 7.56811L7.03646 9.07973L10.4767 5.64059C10.7087 5.40864 11.0927 5.40864 11.3247 5.64059C11.5567 5.87253 11.5567 6.25643 11.3247 6.48838Z" fill="#2FB553"/>
</g>
</svg>
