<svg width="17" height="16" viewBox="0 0 17 16" fill="none" xmlns="http://www.w3.org/2000/svg">
<g id="Group 47">
<path id="Vector" d="M16.1488 6.51399L15.4999 5.98218C15.3377 5.84223 15.2836 5.6463 15.3107 5.45037L15.527 4.63867C15.6622 4.13485 15.554 3.60305 15.2566 3.15521C14.9322 2.70737 14.4455 2.42747 13.9047 2.39948L13.0666 2.3435C12.8503 2.3435 12.634 2.20355 12.5799 2.00763L12.2825 1.2519C12.0932 0.776074 11.6877 0.384216 11.201 0.216277C10.6873 0.0483384 10.1465 0.104318 9.6869 0.384216L8.98393 0.832053C8.79467 0.944013 8.55133 0.944013 8.33504 0.832053L7.63206 0.384216C7.17243 0.104318 6.63168 0.0203486 6.11797 0.216277C5.6313 0.384216 5.22574 0.748084 5.03648 1.2519L4.68499 2.03562C4.60388 2.23154 4.41462 2.37149 4.19832 2.37149L3.36016 2.42747C2.81941 2.45546 2.3057 2.73536 2.00829 3.1832C1.71088 3.60305 1.60273 4.16284 1.73792 4.66666L1.95422 5.47836C2.00829 5.67429 1.92718 5.87022 1.76496 6.01017L1.11606 6.51399C0.683462 6.84987 0.467163 7.35368 0.467163 7.91348C0.467163 8.44528 0.710499 8.9491 1.11606 9.31297L1.76496 9.84478C1.92718 9.98473 2.00829 10.1807 1.95422 10.3766L1.73792 11.1883C1.60273 11.6921 1.71088 12.2239 2.00829 12.6717C2.33274 13.1196 2.81941 13.3995 3.36016 13.4275L4.19832 13.4835C4.41462 13.4835 4.63092 13.6234 4.68499 13.8193L4.9824 14.5751C5.17166 15.0509 5.57722 15.4427 6.0639 15.6107C6.57761 15.7786 7.11835 15.7226 7.57799 15.4427L8.28096 14.9949C8.47022 14.8829 8.71356 14.8829 8.92986 14.9949L9.63283 15.4427C9.93024 15.6107 10.2547 15.7226 10.5791 15.7226C10.7684 15.7226 10.9577 15.6946 11.1469 15.6387C11.6336 15.4707 12.0392 15.1069 12.2284 14.603L12.5258 13.8473C12.6069 13.6514 12.7962 13.5114 13.0125 13.5114L13.8507 13.4555C14.3914 13.4275 14.9051 13.1476 15.2025 12.6997C15.4999 12.2799 15.6081 11.7201 15.4729 11.2163L15.2566 10.4046C15.2025 10.2086 15.2836 10.0127 15.4459 9.87277L16.0948 9.34096C16.5274 9.00508 16.7437 8.50126 16.7437 7.94147C16.8248 7.38167 16.5814 6.87785 16.1488 6.51399ZM15.3918 8.30534L14.7429 8.83714C14.2021 9.28498 13.9588 10.0127 14.1481 10.6845L14.3644 11.4962C14.4184 11.6921 14.3373 11.8321 14.2833 11.916C14.1751 12.056 14.0129 12.1399 13.8507 12.1679L13.0125 12.2239C12.3366 12.2519 11.7147 12.6997 11.4714 13.3435L11.1469 14.0712C11.0658 14.2672 10.9036 14.3511 10.7954 14.3791C10.6332 14.4351 10.4439 14.4071 10.2817 14.3231L9.57875 13.8753C9.28134 13.7074 8.95689 13.5954 8.63245 13.5954C8.308 13.5954 7.98355 13.6794 7.68614 13.8753L6.98317 14.3231C6.82094 14.4071 6.63168 14.4351 6.46946 14.3791C6.38835 14.3511 6.19908 14.2672 6.11797 14.0712L5.82056 13.3155C5.57722 12.6717 4.95536 12.2239 4.27943 12.1959L3.44127 12.1399C3.25201 12.1399 3.08979 12.028 3.00867 11.888C2.9546 11.8041 2.87349 11.6641 2.92756 11.4682L3.14386 10.6565C3.33312 9.98472 3.08979 9.25699 2.54904 8.80915L1.87311 8.30534C1.73792 8.19338 1.68384 8.05343 1.68384 7.91348C1.68384 7.74554 1.76496 7.60559 1.87311 7.52162L2.522 6.98981C3.06275 6.54198 3.30609 5.81424 3.11682 5.14249L2.90053 4.33078C2.84645 4.13485 2.92756 3.9949 2.98164 3.91093C3.08979 3.77098 3.25201 3.68702 3.41424 3.65903L4.25239 3.60305C4.92833 3.57506 5.55019 3.12722 5.79352 2.48345L6.09093 1.72773C6.19908 1.55979 6.36131 1.47582 6.46946 1.44783C6.63168 1.39185 6.82094 1.41984 6.98317 1.50381L7.68614 1.95165C8.25392 2.31551 9.01097 2.31551 9.57875 1.95165L10.2817 1.50381C10.4439 1.41984 10.6332 1.39185 10.7954 1.44783C10.8765 1.47582 11.0658 1.55979 11.1469 1.75572L11.4443 2.51144C11.6877 3.15521 12.3095 3.60305 12.9855 3.63104L13.8236 3.68702C14.0129 3.68702 14.1751 3.79897 14.2562 3.93892C14.3103 4.02289 14.3914 4.16284 14.3373 4.35877L14.121 5.17048C13.9318 5.84223 14.1751 6.56997 14.7159 7.0178L15.3647 7.54961C15.4999 7.66157 15.554 7.80152 15.554 7.94147C15.6081 8.08142 15.527 8.22137 15.3918 8.30534Z" fill="#9A9A9A"/>
<path id="Vector_2" d="M11.1199 5.33841C10.8766 5.0865 10.498 5.0865 10.2547 5.33841L6.14503 9.59286C5.9017 9.84477 5.9017 10.2366 6.14503 10.4885C6.25318 10.6005 6.41541 10.6845 6.57763 10.6845C6.73985 10.6845 6.90208 10.6285 7.01023 10.4885L11.1199 6.23408C11.3632 5.98217 11.3632 5.56233 11.1199 5.33841ZM7.87542 7.10177C8.52432 6.43001 8.52432 5.3664 7.87542 4.69464C7.57801 4.38675 7.14541 4.19083 6.71282 4.19083C6.28022 4.19083 5.87466 4.35877 5.55021 4.69464C4.90131 5.3664 4.90131 6.43001 5.55021 7.10177C5.84762 7.40966 6.28022 7.60558 6.71282 7.60558C7.14541 7.60558 7.55097 7.43765 7.87542 7.10177ZM6.41541 5.61831C6.49652 5.53434 6.60467 5.47836 6.71282 5.47836C6.82097 5.47836 6.92912 5.53434 7.01023 5.61831C7.17245 5.78625 7.17245 6.06614 7.01023 6.23408C6.848 6.40202 6.57763 6.40202 6.41541 6.23408C6.25318 6.06614 6.25318 5.78625 6.41541 5.61831ZM9.3084 8.61322C9.01099 8.92111 8.82173 9.36894 8.82173 9.81678C8.82173 10.2646 8.98395 10.6845 9.3084 11.0203C9.63285 11.3562 10.0384 11.5242 10.471 11.5242C10.9036 11.5242 11.3092 11.3562 11.6336 11.0203C11.931 10.7125 12.1203 10.2646 12.1203 9.81678C12.1203 9.36894 11.9581 8.9491 11.6336 8.61322C10.9847 7.94146 9.9573 7.94146 9.3084 8.61322ZM10.7684 10.1247C10.6062 10.2926 10.3358 10.2926 10.1736 10.1247C10.0925 10.0407 10.0384 9.92874 10.0384 9.81678C10.0384 9.70482 10.0925 9.59286 10.1736 9.50889C10.2547 9.42492 10.3629 9.36894 10.471 9.36894C10.5792 9.36894 10.6873 9.42492 10.7684 9.50889C10.8495 9.59286 10.9036 9.70482 10.9036 9.81678C10.9036 9.92874 10.8495 10.0407 10.7684 10.1247Z" fill="#9A9A9A"/>
</g>
</svg>
